<svg width="31" height="31" viewBox="0 0 31 31" fill="none" xmlns="http://www.w3.org/2000/svg">
<path d="M28.4166 14.2083C28.4111 14.1396 28.4111 14.0704 28.4166 14.0017C28.4166 13.64 28.3133 13.2783 28.2487 12.9167C28.0125 11.8465 27.6346 10.8127 27.125 9.8425C26.2549 8.06223 24.9868 6.50601 23.4189 5.29428C21.8511 4.08255 20.0254 3.24778 18.0833 2.85459L16.9983 2.68667H16.7916H16.4171H16.3137L15.5 2.58334C15.0608 2.58334 14.6216 2.58334 14.2083 2.58334H14.0016L12.9166 2.84167C10.4367 3.35019 8.16087 4.57624 6.37195 6.36745C4.58303 8.15867 3.3599 10.4361 2.85456 12.9167C2.78998 13.2783 2.73831 13.64 2.68665 14.0017C2.69217 14.0704 2.69217 14.1396 2.68665 14.2083C2.68665 14.6346 2.68665 15.0738 2.68665 15.5C2.68665 15.9263 2.68665 16.3783 2.68665 16.7917C2.69217 16.8604 2.69217 16.9296 2.68665 16.9983C2.68665 17.36 2.78998 17.7217 2.85456 18.0833C3.05795 19.1485 3.40106 20.1821 3.87498 21.1575C4.7451 22.9378 6.01315 24.494 7.58102 25.7057C9.14888 26.9175 10.9745 27.7522 12.9166 28.1454L14.0016 28.3133L14.2083 28.4167H14.6475H14.8283C15.0608 28.4167 15.2804 28.4167 15.5129 28.4167C15.9521 28.4167 16.3912 28.4167 16.8046 28.3521H17.0112L18.0833 28.1583C20.5632 27.6498 22.8391 26.4238 24.628 24.6326C26.4169 22.8413 27.6401 20.5639 28.1454 18.0833C28.21 17.7217 28.2616 17.36 28.3133 16.9983C28.3415 16.9265 28.3761 16.8573 28.4166 16.7917C28.4166 16.3654 28.4812 15.9263 28.4812 15.5C28.4812 15.0738 28.4166 14.6217 28.4166 14.2083ZM16.9983 5.29584L17.6441 5.38625C19.9792 5.88467 22.0696 7.17633 23.56 9.04167H14.7508L16.9983 5.29584ZM13.4591 5.39917L13.9758 5.32167L9.53248 12.9167L7.36248 9.145C8.86549 7.21826 11.0027 5.88652 13.3946 5.38625L13.4591 5.39917ZM5.92873 19.375C5.69533 18.8026 5.51376 18.2103 5.38623 17.6054C5.38623 17.3213 5.2829 17.0242 5.25706 16.7271C5.25084 16.6756 5.25084 16.6236 5.25706 16.5721C5.18816 15.8763 5.18816 15.1754 5.25706 14.4796C5.25084 14.4281 5.25084 14.3761 5.25706 14.3246C5.25706 14.0275 5.33456 13.7304 5.38623 13.4463C5.49986 12.8689 5.6641 12.3027 5.87706 11.7542L10.3333 19.375H5.92873ZM14.0662 25.7171L13.4204 25.6267C11.0601 25.1388 8.94464 23.8411 7.43998 21.9583H16.2491L14.0662 25.7171ZM13.2654 19.375L11.0308 15.5L13.2654 11.625H17.7346L19.9691 15.5L17.7346 19.375H13.2654ZM17.6054 25.6138L17.0887 25.6913L21.4675 18.0833L23.6375 21.855C22.1345 23.7817 19.9973 25.1135 17.6054 25.6138ZM25.7816 16.5721C25.7879 16.6236 25.7879 16.6756 25.7816 16.7271C25.7816 17.0242 25.7041 17.3213 25.6525 17.6054C25.536 18.1652 25.3717 18.714 25.1616 19.2458L20.6666 11.625H25.0196C25.253 12.1974 25.4345 12.7897 25.5621 13.3946C25.5621 13.6788 25.6654 13.9758 25.6912 14.2729C25.6975 14.3244 25.6975 14.3764 25.6912 14.4279C25.7601 15.1237 25.7601 15.8246 25.6912 16.5204L25.7816 16.5721Z" fill="#292826"/>
</svg>
